#!OML:ASF C:\Vicon Data\Big\jianyuan-13\jianyuan\Session 1\Capture.male.ASF
:FULLY-SPECIFIED
:DEGREES
42
root -8.384154 17.563287 -20.287707 5.484516 13.841664 -0.817327
lowerback -10.645381 -0.852042 -1.197026 
upperback 1.942669 -1.036175 0.735580 
thorax 8.083456 -0.581016 1.273343 
lowerneck -6.676405 -3.524987 2.557924 
upperneck 5.166772 -4.835691 -1.855331 
head 2.697415 -2.419214 -1.248859 
rclavicle 0.000000 0.000000 
rhumerus -38.145868 -20.393247 -77.213186 
rradius 34.840468 
rwrist 27.882693 
rhand -19.853605 -19.145690 
rfingers 0.000000 
rthumb 6.481114 -49.026463 
lclavicle 0.000000 0.000000 
lhumerus -37.586381 39.188603 69.406904 
lradius 24.569893 
lwrist -62.329445 
lhand -21.201834 0.519092 
lfingers 0.000000 
lthumb 5.179463 30.435786 
rfemur -26.165271 -0.881994 24.796318 
rtibia 29.304300 
rfoot -13.139267 -4.763211 
rtoes -26.942542 
lfemur -31.614185 12.095967 -15.116803 
ltibia 81.115603 
lfoot -6.472430 -3.837894 
ltoes -41.458573 
43
root -8.403286 17.572964 -20.238306 5.260439 14.182592 -0.692270
lowerback -10.202604 -0.789038 -1.289996 
upperback 2.053066 -0.940277 0.697243 
thorax 7.944643 -0.537290 1.305783 
lowerneck -6.699283 -3.671076 2.519975 
upperneck 5.289849 -5.029435 -1.843545 
head 2.739491 -2.515562 -1.249636 
rclavicle 0.000000 0.000000 
rhumerus -37.867081 -20.145755 -77.428174 
rradius 35.015039 
rwrist 27.726936 
rhand -19.932407 -19.272598 
rfingers 0.000000 
rthumb 6.405056 -49.155754 
lclavicle 0.000000 0.000000 
lhumerus -37.279454 38.993514 69.580618 
lradius 24.511837 
lwrist -62.149773 
lhand -21.352080 0.529629 
lfingers 0.000000 
lthumb 5.034415 30.449794 
rfemur -25.600043 -0.753032 24.722467 
rtibia 29.188568 
rfoot -13.263574 -5.223068 
rtoes -26.980025 
lfemur -33.659528 12.177890 -15.348087 
ltibia 83.106567 
lfoot -7.697084 -4.513744 
ltoes -41.005999 
44
root -8.417528 17.580281 -20.193797 5.243242 14.375533 -0.619765
lowerback -9.920477 -0.713474 -1.287108 
upperback 2.061887 -0.842042 0.689284 
thorax 7.787877 -0.488206 1.314667 
lowerneck -6.687722 -3.769944 2.373342 
upperneck 5.413613 -5.156309 -1.725367 
head 2.782383 -2.577123 -1.193754 
rclavicle 0.000000 0.000000 
rhumerus -37.600123 -20.067433 -77.487037 
rradius 35.084468 
rwrist 27.836905 
rhand -19.853199 -19.184387 
rfingers 0.000000 
rthumb 6.481522 -49.065191 
lclavicle 0.000000 0.000000 
lhumerus -37.139012 38.734799 69.709819 
lradius 24.594372 
lwrist -61.851835 
lhand -21.446147 0.667662 
lfingers 0.000000 
lthumb 4.943596 30.589961 
rfemur -25.323888 -0.654315 24.719783 
rtibia 29.084418 
rfoot -13.311796 -5.549805 
rtoes -26.867138 
lfemur -36.054377 12.393022 -15.702548 
ltibia 85.079322 
lfoot -8.736554 -5.169512 
ltoes -41.945463 
45
root -8.432504 17.586121 -20.153478 5.223672 14.585670 -0.465922
lowerback -9.578741 -0.591815 -1.344364 
upperback 2.078184 -0.669286 0.603583 
thorax 7.602078 -0.403062 1.286988 
lowerneck -6.730206 -3.921782 2.463624 
upperneck 5.591225 -5.367243 -1.770733 
head 2.842113 -2.681257 -1.237997 
rclavicle 0.000000 0.000000 
rhumerus -37.376984 -19.660777 -77.805726 
rradius 35.315111 
rwrist 27.304178 
rhand -20.010519 -19.335827 
rfingers 0.000000 
rthumb 6.329691 -49.221314 
lclavicle 0.000000 0.000000 
lhumerus -36.925444 38.182006 69.952204 
lradius 24.781022 
lwrist -61.522267 
lhand -21.338530 0.821306 
lfingers 0.000000 
lthumb 5.047448 30.741219 
rfemur -25.062776 -0.372338 24.598919 
rtibia 29.016095 
rfoot -13.519461 -6.075904 
rtoes -26.322121 
lfemur -38.487502 12.439571 -16.103555 
ltibia 87.072067 
lfoot -9.616526 -6.039261 
ltoes -40.826995 
46
root -8.442516 17.593525 -20.111852 5.159694 14.698601 -0.229347
lowerback -9.209455 -0.489453 -1.440048 
upperback 2.145135 -0.520153 0.531145 
thorax 7.456214 -0.332131 1.289846 
lowerneck -6.785905 -4.043991 2.297913 
upperneck 5.703372 -5.522879 -1.683578 
head 2.893618 -2.758637 -1.192147 
rclavicle 0.000000 0.000000 
rhumerus -37.096128 -18.647370 -78.274991 
rradius 35.778041 
rwrist 26.504248 
rhand -19.957989 -19.560080 
rfingers 0.000000 
rthumb 6.380376 -49.443950 
lclavicle 0.000000 0.000000 
lhumerus -36.744821 38.285391 69.901628 
lradius 24.661466 
lwrist -61.646465 
lhand -21.398423 0.814670 
lfingers 0.000000 
lthumb 4.989661 30.735930 
rfemur -24.697784 -0.171151 24.393963 
rtibia 28.907128 
rfoot -13.550794 -6.401874 
rtoes -25.880802 
lfemur -40.781420 12.567163 -16.674562 
ltibia 88.887728 
lfoot -10.591822 -6.824543 
ltoes -41.227330 
47
root -8.457790 17.605444 -20.069905 5.077231 14.791203 -0.055326
lowerback -8.841332 -0.367454 -1.524693 
upperback 2.221550 -0.347028 0.453155 
thorax 7.320047 -0.249005 1.282946 
lowerneck -6.778131 -4.157115 2.206961 
upperneck 5.715783 -5.676076 -1.527352 
head 2.899663 -2.830855 -1.132448 
rclavicle 0.000000 0.000000 
rhumerus -36.779988 -18.193252 -78.597356 
rradius 36.026091 
rwrist 26.199188 
rhand -19.917925 -19.697833 
rfingers 0.000000 
rthumb 6.419069 -49.580537 
lclavicle 0.000000 0.000000 
lhumerus -36.526481 37.956626 70.055377 
lradius 24.778515 
lwrist -61.395149 
lhand -21.346733 0.863697 
lfingers 0.000000 
lthumb 5.039563 30.783789 
rfemur -24.298648 0.172539 24.259477 
rtibia 28.745569 
rfoot -13.774531 -6.902051 
rtoes -25.396094 
lfemur -43.114262 12.710474 -17.140487 
ltibia 90.696028 
lfoot -11.446622 -7.641377 
ltoes -41.243605 
48
root -8.468102 17.615095 -20.026867 4.996319 14.804071 0.075781
lowerback -8.535694 -0.188203 -1.507630 
upperback 2.307687 -0.109480 0.378817 
thorax 7.227293 -0.130403 1.230595 
lowerneck -6.781428 -4.292553 2.275433 
upperneck 5.740249 -5.859756 -1.591931 
head 2.900701 -2.922941 -1.173321 
rclavicle 0.000000 0.000000 
rhumerus -36.387165 -18.243487 -78.669725 
rradius 36.095806 
rwrist 26.120848 
rhand -19.925449 -19.617691 
rfingers 0.000000 
rthumb 6.411768 -49.500611 
lclavicle 0.000000 0.000000 
lhumerus -36.324543 37.923610 70.076384 
lradius 24.776136 
lwrist -61.442372 
lhand -21.254961 0.759610 
lfingers 0.000000 
lthumb 5.128164 30.677535 
rfemur -23.904758 0.475346 24.163791 
rtibia 28.564031 
rfoot -13.989518 -7.290403 
rtoes -24.753170 
lfemur -45.460193 12.838664 -17.601436 
ltibia 92.494387 
lfoot -12.224484 -8.375285 
ltoes -40.692899 
49
root -8.482175 17.626723 -19.989362 4.946338 14.841868 0.293115
lowerback -8.131232 -0.086479 -1.660495 
upperback 2.343259 0.039835 0.319992 
thorax 7.027610 -0.061449 1.275486 
lowerneck -6.742755 -4.363057 2.258489 
upperneck 5.764563 -5.952383 -1.590207 
head 2.900084 -2.969306 -1.172981 
rclavicle 0.000000 0.000000 
rhumerus -36.119520 -17.745493 -78.879290 
rradius 36.302220 
rwrist 26.066097 
rhand -19.856731 -19.536569 
rfingers 0.000000 
rthumb 6.478103 -49.417482 
lclavicle 0.000000 0.000000 
lhumerus -36.282998 37.818147 70.043744 
lradius 24.893153 
lwrist -61.341271 
lhand -21.129071 0.681829 
lfingers 0.000000 
lthumb 5.249722 30.596802 
rfemur -23.575507 0.864332 23.969796 
rtibia 28.421043 
rfoot -14.154075 -7.821026 
rtoes -24.808079 
lfemur -47.899588 12.982870 -18.201568 
ltibia 94.210408 
lfoot -12.866888 -8.926499 
ltoes -40.911362 
